PathFileType	4	(X/Y/Z)	/Users/niels/Desktop/University/Third Semester/Perception and Action/Exam/Gymnastics Motion Tracking/Code for Gym Tracking/Analyzed Data/Webcam_Backflip/id1_9_trajectory_Sports2D/id1_9_trajectory_Sports2D_px_person00.trc
DataRate	CameraRate	NumFrames	NumMarkers	Units	OrigDataRate	OrigDataStartFrame	OrigNumFrames
29.714285714285715	29.714285714285715	9	22	m	29.714285714285715	65	105
Frame#	Time	Hip			RHip			RKnee			RAnkle			RBigToe			RSmallToe			RHeel			LHip			LKnee			LAnkle			LBigToe			LSmallToe			LHeel			Neck			Head			Nose			RShoulder			RElbow			RWrist			LShoulder			LElbow			LWrist		
		X1	Y1	Z1	X2	Y2	Z2	X3	Y3	Z3	X4	Y4	Z4	X5	Y5	Z5	X6	Y6	Z6	X7	Y7	Z7	X8	Y8	Z8	X9	Y9	Z9	X10	Y10	Z10	X11	Y11	Z11	X12	Y12	Z12	X13	Y13	Z13	X14	Y14	Z14	X15	Y15	Z15	X16	Y16	Z16	X17	Y17	Z17	X18	Y18	Z18	X19	Y19	Z19	X20	Y20	Z20	X21	Y21	Z21	X22	Y22	Z22
65	2.1875	1.3589628049660913	-0.5421896621781096	0.0	1.3364826038141042	-0.5403748193915558	0.0	1.3519347669281578	-0.6598814824726987	0.0	1.3845957745507578	-0.7729577932498123	0.0	1.3565625398596046	-0.809435156080818	0.0	1.358820568138852	-0.8033230389407551	0.0	1.3968158579383627	-0.7870357330353559	0.0	1.3812154320375891	-0.5405996475708469	0.0	1.3335546631383715	-0.6531928333840349	0.0	1.326099163345127	-0.7795137040255133	0.0	1.2888416763893817	-0.8034406034377097	0.0	1.3044706258482106	-0.8063084689777656	0.0	1.3336757326050261	-0.7963136548165787	0.0	1.351317553279021	-0.3878843235042396	0.0	1.3427800688387004	-0.3066802434568976	0.0	1.3345437104967648	-0.35891693473093084	0.0	1.3121397565075228	-0.4022451291591595	0.0	1.2767335386576324	-0.4561556299676917	0.0	1.2402729900816063	-0.47116068000187045	0.0	1.3924979900038112	-0.4014192225494846	0.0	1.415034118049865	-0.4703796326442532	0.0	1.3475213793812788	-0.5080607777776397	0.0
66	2.2211538461538463	1.3566852070586224	-0.5399886473464229	0.0	1.3336266801788297	-0.5372724328298623	0.0	1.3450080860206852	-0.6578261565322392	0.0	1.3725535499791315	-0.7742134820430391	0.0	1.3450125647492825	-0.8094500458343535	0.0	1.3450283691890206	-0.8031426463035681	0.0	1.384041915131034	-0.7889860503466409	0.0	1.3795336591945642	-0.5382603696809277	0.0	1.3378473538116993	-0.6532976905636843	0.0	1.3382456215608953	-0.7799538831804309	0.0	1.3045571385787837	-0.8078288512847213	0.0	1.3214017834346934	-0.8101171565719619	0.0	1.3466488840201316	-0.7965833260155082	0.0	1.350690008805699	-0.3846798669214045	0.0	1.3459989298193784	-0.30178159137497745	0.0	1.3361587938952093	-0.35495888140181625	0.0	1.3104119942223746	-0.3979377832829951	0.0	1.2726159635565601	-0.451102711014042	0.0	1.2346917808469116	-0.4638106826414836	0.0	1.39172829796189	-0.3984782418170304	0.0	1.4173696418213528	-0.4668589995683273	0.0	1.3497979027336167	-0.5029009927070099	0.0
67	2.254807692307692	1.3539888266335638	-0.5423744463196105	0.0	1.3307033198116907	-0.5390495561042726	0.0	1.3385474972723812	-0.6607894896769748	0.0	1.3612866502771268	-0.7799599044872503	0.0	1.333901656062069	-0.8131903081986622	0.0	1.3318043330402198	-0.8068256362916971	0.0	1.3720463834147687	-0.7954363760772265	0.0	1.3773933064966115	-0.5406291235533257	0.0	1.3421705241061719	-0.6577285495503553	0.0	1.349108382706123	-0.7847835501862784	0.0	1.318401057777078	-0.8152575518040405	0.0	1.3365422635477553	-0.8171964553047495	0.0	1.357962793796662	-0.8012145097611003	0.0	1.3500872049222425	-0.38566925459141443	0.0	1.3485101481087256	-0.3014540489180919	0.0	1.337514786028473	-0.3552059777210952	0.0	1.3086889031990125	-0.3984524273883364	0.0	1.269452433335023	-0.451696716155882	0.0	1.2320783594515783	-0.4621694511596334	0.0	1.3913584538353079	-0.4003344597399325	0.0	1.4195957757796651	-0.46879927134139	0.0	1.3537709650607441	-0.505375829653023	0.0
68	2.2884615384615383	1.3508412784006967	-0.5492007384741625	0.0	1.3275551104224113	-0.5455875051523943	0.0	1.3330806763764123	-0.6685377798720163	0.0	1.3517198901861358	-0.789748970116867	0.0	1.32462554318191	-0.8206750627652184	0.0	1.3207717363338831	-0.8143786655086543	0.0	1.3617587372901954	-0.8057153903465406	0.0	1.374833272638891	-0.5475131112040788	0.0	1.3464836463787933	-0.6663430894245641	0.0	1.3576121213812151	-0.7939351419082414	0.0	1.3294527142538441	-0.8253153231231708	0.0	1.3487347243691856	-0.8270701730842642	0.0	1.3664072274429575	-0.8102141846675486	0.0	1.349481253817734	-0.39084632823498167	0.0	1.3500404314286065	-0.3058338229015508	0.0	1.3386101375209432	-0.3597716197095086	0.0	1.3068508392191185	-0.40374491948351166	0.0	1.2671181409086436	-0.4577211300869342	0.0	1.2322260078669498	-0.46587181542683587	0.0	1.3915481532680136	-0.40704125345591036	0.0	1.4216254439876839	-0.47611216628948894	0.0	1.3591702817136408	-0.5152600038784091	0.0
69	2.3221153846153846	1.347445588465942	-0.5601726635377393	0.0	1.3242263059120096	-0.5564969934224671	0.0	1.3288943219104286	-0.6805252822260628	0.0	1.344399610019347	-0.802839694391985	0.0	1.3179241508537496	-0.8315355412924158	0.0	1.3128130388587451	-0.8253546412160406	0.0	1.353781397260054	-0.8189635660397375	0.0	1.372044500006628	-0.5585778939766368	0.0	1.3505470607963377	-0.6788188425083084	0.0	1.3633791714565955	-0.8068163586368815	0.0	1.3375904999220656	-0.8376527606898019	0.0	1.3576003636322445	-0.8392618839127822	0.0	1.3716636554611017	-0.8229598038548304	0.0	1.3487734776930156	-0.40010397989828433	0.0	1.3504820246102516	-0.31486273995384606	0.0	1.3394054880565625	-0.36865747463688536	0.0	1.3047881406445936	-0.4136631032389922	0.0	1.2654922105325612	-0.46880443091189866	0.0	1.2345122348973478	-0.47474563189734265	0.0	1.3922685201723635	-0.41840863260080674	0.0	1.423255811394674	-0.48850449423179343	0.0	1.3658373693776267	-0.5319141449746463	0.0
70	2.355769230769231	1.3441422985875455	-0.5748088429752004	0.0	1.3208851232673193	-0.5711757036405598	0.0	1.3259570290599392	-0.6960805693578938	0.0	1.339453039208863	-0.818351084027542	0.0	1.3138700367999454	-0.84528107286485	0.0	1.308028160175667	-0.8391498010966354	0.0	1.3483778380052611	-0.8343356683525794	0.0	1.3693269979543357	-0.5733204091670016	0.0	1.3539537226732816	-0.6946672416209494	0.0	1.3666579207594856	-0.8224881214535034	0.0	1.343099473937027	-0.8519550288800605	0.0	1.3633676163354629	-0.853310747027503	0.0	1.3741830655702008	-0.8384387330359494	0.0	1.3478594092476197	-0.41309661504400175	0.0	1.3499492726301587	-0.328182722557529	0.0	1.3398617752481328	-0.3815766074056829	0.0	1.3024051825754603	-0.4278606431300476	0.0	1.2644516826316656	-0.484482359034525	0.0	1.2381283818702007	-0.4887501933991535	0.0	1.3932969204860457	-0.4338711361590856	0.0	1.4242487482890056	-0.5053733046658181	0.0	1.3737178153781506	-0.5542719162890305	0.0
71	2.3894230769230766	1.341311836452426	-0.5922930314766337	0.0	1.3177759946992196	-0.5887767191655077	0.0	1.3240150054622788	-0.7143283114359408	0.0	1.3366820962927246	-0.835311324138413	0.0	1.3122202841992059	-0.8612012527958725	0.0	1.3060280818591987	-0.8550122455067343	0.0	1.3454513681350815	-0.850970458911258	0.0	1.367037650985293	-0.5909429611045474	0.0	1.3563188738129917	-0.7130938344840502	0.0	1.368039876281629	-0.8398230616280606	0.0	1.3465279342739744	-0.8676993238272852	0.0	1.3666940375768568	-0.868564225598956	0.0	1.3747782894086296	-0.8554399058430773	0.0	1.3467286437544577	-0.4291152529792358	0.0	1.3487820198595881	-0.3450998019259993	0.0	1.3400097556891104	-0.39782696676951573	0.0	1.299706289543105	-0.44565099135346287	0.0	1.2639101650863132	-0.5040860598149832	0.0	1.242331084660544	-0.5078728939821291	0.0	1.3943276925155421	-0.4524259860925557	0.0	1.4244363028121485	-0.5256186044297722	0.0	1.3827440336405776	-0.5807015816450588	0.0
72	2.423076923076923	1.339264027824165	-0.6113604536554283	0.0	1.315172259219191	-0.6080761077035095	0.0	1.322730510193901	-0.7340226390022699	0.0	1.3356760424302923	-0.8525905362906994	0.0	1.3126631314684816	-0.8781350179966295	0.0	1.3062270177530655	-0.8718876212220393	0.0	1.344565964830489	-0.8678164823347246	0.0	1.365493862619469	-0.6102020730449947	0.0	1.3575038239996151	-0.7328685998925983	0.0	1.368211456607386	-0.8575273023368217	0.0	1.3485916198058667	-0.8839242923248908	0.0	1.368403019219744	-0.88398209168998	0.0	1.374274519799269	-0.8725850449948077	0.0	1.3455283459732694	-0.4470409601039126	0.0	1.3474343447858976	-0.3645532640621979	0.0	1.3399886826607839	-0.41626474953831	0.0	1.296894886103366	-0.4658266299267286	0.0	1.2639123318474992	-0.5264067594320595	0.0	1.246560320312692	-0.5319077063200962	0.0	1.395143976435727	-0.47261452651953667	0.0	1.4238242548720133	-0.5475753325519152	0.0	1.3926851757618732	-0.6089136583017697	0.0
73	2.456730769230769	1.3381071414846843	-0.6304113252678172	0.0	1.3132542686126667	-0.6274534590007824	0.0	1.3217313567736166	-0.7535777990231568	0.0	1.3358955611973318	-0.8688879111504738	0.0	1.3148126593237206	-0.8945543451673457	0.0	1.3080139151386492	-0.8884198820502357	0.0	1.3450537860782186	-0.8836262466032659	0.0	1.3648098742715202	-0.6294580759636226	0.0	1.3576980937380816	-0.7523775325345731	0.0	1.367786030279278	-0.874217696355351	0.0	1.3499372620690522	-0.8993098621068132	0.0	1.3691766252574065	-0.8982377805498767	0.0	1.3733185269195751	-0.8884498037716295	0.0	1.3445137951986403	-0.4654123831970366	0.0	1.3463120061113822	-0.3850226943470112	0.0	1.340025293728334	-0.43535953818464246	0.0	1.2943404045657043	-0.4865913677238096	0.0	1.2646565396966818	-0.5495343644767575	0.0	1.2504243684833751	-0.5601139780934877	0.0	1.3956914105451041	-0.4926301641454119	0.0	1.4226276239990905	-0.5692167458340605	0.0	1.403032433328237	-0.6361933831980306	0.0
